<svg width="35" height="35" viewBox="0 0 35 35" fill="none" xmlns="http://www.w3.org/2000/svg">
<path d="M5.61728 17.4467C5.61728 10.8582 10.9305 5.55536 17.502 5.58503C24.0736 5.61469 29.3867 10.9655 29.3867 17.554C29.3867 24.1424 24.0736 29.4453 17.502 29.4156C10.9305 29.386 5.61728 24.0351 5.61728 17.4467ZM27.9885 17.5477C27.9885 11.7302 23.3045 7.01302 17.502 6.98683C11.6995 6.96063 7.01548 11.6355 7.01548 17.453C7.01548 23.2705 11.6995 27.9876 17.502 28.0138C23.3045 28.04 27.9885 23.3651 27.9885 17.5477Z" fill="white"/>
<path d="M16.7831 23.2413L22.573 17.4369L16.7577 11.6063L17.7343 10.6273L24.5305 17.4413L17.764 24.2247L16.7831 23.2413Z" fill="white"/>
<path d="M23.5508 16.7373L23.5538 18.1391L11.669 18.1123L11.666 16.7105L23.5508 16.7373Z" fill="white"/>
</svg>
