<svg width="36" height="35" viewBox="0 0 36 35" fill="none" xmlns="http://www.w3.org/2000/svg">
<path d="M15.0187 23.6194C14.7234 23.6194 14.4883 23.3843 14.4883 23.089V20.9671C14.4883 20.6718 14.7234 20.4366 15.0187 20.4366C15.3141 20.4366 15.5492 20.6718 15.5492 20.9671V23.089C15.5492 23.3843 15.3141 23.6194 15.0187 23.6194ZM20.9797 23.6194C20.6844 23.6194 20.4492 23.3843 20.4492 23.089V20.9616C20.4492 20.6663 20.6844 20.4312 20.9797 20.4312C21.275 20.4312 21.5102 20.6663 21.5102 20.9616V23.089C21.5102 23.3843 21.275 23.6194 20.9797 23.6194Z" fill="white"/>
<path d="M17.9898 22.4821C17.2844 22.4821 16.5734 22.3345 15.868 22.0446C14.2328 21.3774 12.9805 19.961 12.4609 18.211C11.5695 17.9267 10.9187 16.7946 10.9187 15.4056C10.9187 14.1642 11.4383 13.1087 12.2039 12.704C12.2203 12.6056 12.2477 12.5017 12.2859 12.4032C12.4008 12.1353 12.7125 12.0095 12.9805 12.1243C13.2484 12.2392 13.3742 12.5509 13.2594 12.8188L13.2484 13.0704C13.2484 13.322 13.068 13.5407 12.8219 13.5899C12.4117 13.672 11.9742 14.4212 11.9742 15.4056C11.9742 16.4392 12.4555 17.2157 12.8875 17.2212C13.1281 17.2267 13.3414 17.3907 13.3961 17.6259C13.7734 19.2009 14.8453 20.486 16.2672 21.0657C16.907 21.3282 17.5523 21.4485 18.1813 21.4212C18.7883 21.3993 19.3625 21.2571 19.9477 20.9782C21.2492 20.3384 22.2117 19.1188 22.5836 17.6259C22.6437 17.3907 22.857 17.2212 23.0977 17.2212C23.5297 17.2212 24.0164 16.4446 24.0164 15.4056C24.0164 14.4212 23.5789 13.672 23.1687 13.5899C22.9227 13.5407 22.7422 13.322 22.7422 13.0704V12.611C22.7422 12.3157 22.9773 12.0806 23.2727 12.0806C23.568 12.0806 23.8031 12.3157 23.8031 12.611V12.7095C24.5633 13.1196 25.0773 14.1696 25.0773 15.4056C25.0773 16.8056 24.4211 17.9431 23.5187 18.2165C23.0156 19.8626 21.9 21.2024 20.407 21.9298C19.6852 22.2688 18.9742 22.4493 18.225 22.4767C18.1539 22.4767 18.0719 22.4821 17.9898 22.4821ZM29.7914 35.0001H6.21016C5.91484 35.0001 5.67969 34.7649 5.67969 34.4696V28.3829C5.67969 25.4517 7.86719 22.9688 10.7766 22.6079C11.0227 22.5751 11.2688 22.5587 11.4984 22.5587H15.0312C15.2336 22.5587 15.4141 22.6735 15.507 22.8485C15.9883 23.8001 16.8031 24.3688 17.7492 24.4181C18.7937 24.4728 19.8492 23.8657 20.5273 22.8048C20.6258 22.6517 20.7953 22.5587 20.9758 22.5587H24.5086C24.7383 22.5587 24.9844 22.5751 25.2305 22.6079C28.1344 22.9688 30.3273 25.4517 30.3273 28.3829V34.4696C30.3219 34.7649 30.0812 35.0001 29.7914 35.0001ZM6.74062 33.9392H29.2555V28.3829C29.2555 25.9821 27.4672 23.9532 25.0938 23.6579C24.8859 23.6306 24.6891 23.6196 24.5031 23.6196H21.2547C20.3633 24.8556 19.0617 25.5501 17.6945 25.479C16.4586 25.4188 15.3922 24.7462 14.7195 23.6196H11.4984C11.3125 23.6196 11.1102 23.6306 10.9078 23.6579C8.53438 23.9532 6.74609 25.9821 6.74609 28.3829V33.9392H6.74062Z" fill="white"/>
<path d="M10.2873 11.0471C10.0139 11.0471 9.77871 10.8338 9.75683 10.5549C9.75136 10.4674 9.7459 10.3744 9.7459 10.2924C9.6748 7.32286 10.6264 4.93848 12.5787 3.21583C13.0381 2.80567 13.5631 2.43926 14.1264 2.13848C14.7662 1.79942 15.4279 1.55333 16.1061 1.4002C16.3904 1.33458 16.6748 1.51505 16.7404 1.79942C16.8061 2.0838 16.6256 2.36817 16.3412 2.4338C15.7561 2.56505 15.1818 2.77833 14.6295 3.07364C14.1373 3.33614 13.6889 3.65333 13.2842 4.0088C11.5561 5.53458 10.7467 7.58536 10.8123 10.276C10.8123 10.3525 10.8178 10.4182 10.8232 10.4783C10.8451 10.7682 10.6209 11.0252 10.3311 11.0471C10.3146 11.0471 10.2982 11.0471 10.2873 11.0471ZM25.7092 11.0471C25.6982 11.0471 25.6818 11.0471 25.6709 11.0471C25.3811 11.0252 25.1568 10.7736 25.1787 10.4783C25.1842 10.4182 25.1896 10.3471 25.1896 10.2869C25.2553 7.58536 24.4459 5.53458 22.7178 4.0088C22.2912 3.63145 21.8264 3.3088 21.3287 3.05176C20.8037 2.77286 20.2404 2.56505 19.6498 2.42286C19.3654 2.35723 19.1904 2.06739 19.2561 1.78301C19.3217 1.49864 19.6115 1.32364 19.8959 1.38926C20.574 1.55333 21.2193 1.79395 21.8209 2.11114C22.3896 2.40645 22.9311 2.77833 23.4178 3.21036C25.3646 4.93301 26.3217 7.31739 26.2506 10.2979C26.2506 10.369 26.2451 10.4619 26.2396 10.5494C26.2178 10.8338 25.9881 11.0471 25.7092 11.0471Z" fill="white"/>
<path d="M19.8383 10.9812C19.543 10.9812 19.3078 10.7461 19.3078 10.4508V2.3625C19.3078 1.64063 18.7227 1.05547 18.0008 1.05547C17.2789 1.05547 16.6938 1.64063 16.6938 2.3625V10.4508C16.6938 10.7461 16.4586 10.9812 16.1633 10.9812C15.868 10.9812 15.6328 10.7461 15.6328 10.4508V2.3625C15.6383 1.06094 16.6992 0 18.0008 0C19.3023 0 20.3633 1.06094 20.3633 2.3625V10.4508C20.3633 10.7461 20.1281 10.9812 19.8383 10.9812Z" fill="white"/>
<path d="M25.3438 13.136H10.6547C9.76875 13.136 9.04688 12.4142 9.04688 11.5282C9.04688 10.6423 9.76875 9.92041 10.6547 9.92041H25.3492C26.2352 9.92041 26.957 10.6423 26.957 11.5282C26.9516 12.4142 26.2352 13.136 25.3438 13.136ZM10.6547 10.9813C10.3539 10.9813 10.1078 11.2274 10.1078 11.5282C10.1078 11.829 10.3539 12.0751 10.6547 12.0751H25.3492C25.65 12.0751 25.8961 11.829 25.8961 11.5282C25.8961 11.2274 25.65 10.9813 25.3492 10.9813H10.6547Z" fill="white"/>
<path d="M23.882 35C23.5867 35 23.3516 34.7648 23.3516 34.4695V28.7766C23.3516 28.4812 23.5867 28.2461 23.882 28.2461C24.1773 28.2461 24.4125 28.4812 24.4125 28.7766V34.4695C24.4125 34.7648 24.1773 35 23.882 35ZM26.6438 35C26.3484 35 26.1133 34.7648 26.1133 34.4695V28.7766C26.1133 28.4812 26.3484 28.2461 26.6438 28.2461C26.9391 28.2461 27.1742 28.4812 27.1742 28.7766V34.4695C27.1742 34.7648 26.9391 35 26.6438 35ZM26.6438 25.993C26.3484 25.993 26.1133 25.7578 26.1133 25.4625V23.543C26.1133 23.2477 26.3484 23.0125 26.6438 23.0125C26.9391 23.0125 27.1742 23.2477 27.1742 23.543V25.4625C27.1742 25.7578 26.9391 25.993 26.6438 25.993ZM23.882 25.993C23.5867 25.993 23.3516 25.7578 23.3516 25.4625V23.0891C23.3516 22.7938 23.5867 22.5586 23.882 22.5586C24.1773 22.5586 24.4125 22.7938 24.4125 23.0891V25.4625C24.4125 25.7578 24.1773 25.993 23.882 25.993Z" fill="white"/>
<path d="M27.0414 29.3071H23.4758C23.1805 29.3071 22.9453 29.072 22.9453 28.7767V25.4626C22.9453 25.1673 23.1805 24.9321 23.4758 24.9321H27.0414C27.3367 24.9321 27.5719 25.1673 27.5719 25.4626V28.7767C27.5719 29.072 27.3367 29.3071 27.0414 29.3071ZM24.0062 28.2517H26.5109V25.9985H24.0062V28.2517Z" fill="white"/>
<path d="M12.1086 35C11.8133 35 11.5781 34.7648 11.5781 34.4695V28.7766C11.5781 28.4812 11.8133 28.2461 12.1086 28.2461C12.4039 28.2461 12.6391 28.4812 12.6391 28.7766V34.4695C12.6391 34.7648 12.4039 35 12.1086 35ZM9.34688 35C9.05156 35 8.81641 34.7648 8.81641 34.4695V28.7766C8.81641 28.4812 9.05156 28.2461 9.34688 28.2461C9.64219 28.2461 9.87734 28.4812 9.87734 28.7766V34.4695C9.87734 34.7648 9.64219 35 9.34688 35ZM9.34688 25.993C9.05156 25.993 8.81641 25.7578 8.81641 25.4625V23.543C8.81641 23.2477 9.05156 23.0125 9.34688 23.0125C9.64219 23.0125 9.87734 23.2477 9.87734 23.543V25.4625C9.87734 25.7578 9.64219 25.993 9.34688 25.993ZM12.1086 25.993C11.8133 25.993 11.5781 25.7578 11.5781 25.4625V23.0891C11.5781 22.7938 11.8133 22.5586 12.1086 22.5586C12.4039 22.5586 12.6391 22.7938 12.6391 23.0891V25.4625C12.6391 25.7578 12.4039 25.993 12.1086 25.993Z" fill="white"/>
<path d="M12.5141 29.3071H8.94844C8.65313 29.3071 8.41797 29.072 8.41797 28.7767V25.4626C8.41797 25.1673 8.65313 24.9321 8.94844 24.9321H12.5141C12.8094 24.9321 13.0445 25.1673 13.0445 25.4626V28.7767C13.0445 29.072 12.8094 29.3071 12.5141 29.3071ZM9.47891 28.2517H11.9836V25.9985H9.47891V28.2517Z" fill="white"/>
</svg>
