<svg width="35" height="35" viewBox="0 0 35 35" fill="none" xmlns="http://www.w3.org/2000/svg">
<path d="M32.2656 24.0625V22.4219C32.2656 22.2768 32.208 22.1377 32.1054 22.0352C32.0029 21.9326 31.8638 21.875 31.7188 21.875H29.6594C29.4867 21.3186 29.2628 20.7794 28.9905 20.2643L30.4479 18.8114C30.4988 18.7606 30.5392 18.7004 30.5668 18.634C30.5944 18.5676 30.6086 18.4965 30.6087 18.4246C30.6087 18.3527 30.5946 18.2815 30.5671 18.2151C30.5396 18.1487 30.4993 18.0884 30.4485 18.0375L27.3531 14.9422C27.2505 14.8396 27.1115 14.782 26.9664 14.7819C26.8946 14.7819 26.8229 14.7962 26.7566 14.8237C26.6902 14.8513 26.63 14.8917 26.5793 14.9427L25.1264 16.4001C24.6113 16.1278 24.0721 15.9039 23.5156 15.7312V13.6719C23.5156 13.5268 23.458 13.3877 23.3554 13.2852C23.2529 13.1826 23.1138 13.125 22.9688 13.125H21.3281V8.69473C21.7628 8.60821 22.1699 8.4173 22.5143 8.13844C22.8587 7.85959 23.1302 7.50115 23.3053 7.09403C23.4804 6.68691 23.5538 6.24332 23.5193 5.80149C23.4848 5.35966 23.3434 4.93285 23.1073 4.55784C22.8711 4.18284 22.5473 3.87089 22.1637 3.64888C21.7802 3.42687 21.3484 3.30147 20.9056 3.28347C20.4628 3.26548 20.0222 3.35543 19.6219 3.54559C19.2216 3.73574 18.8735 4.02039 18.6077 4.375H8.20312V3.82812C8.20312 3.68308 8.14551 3.54399 8.04295 3.44143C7.94039 3.33887 7.80129 3.28125 7.65625 3.28125H6.5625V1.64062C6.5625 1.49558 6.50488 1.35648 6.40232 1.25393C6.29977 1.15137 6.16067 1.09375 6.01562 1.09375H3.28125C3.13621 1.09375 2.99711 1.15137 2.89455 1.25393C2.79199 1.35648 2.73438 1.49558 2.73438 1.64062V3.28125H1.64062C1.49558 3.28125 1.35648 3.33887 1.25393 3.44143C1.15137 3.54399 1.09375 3.68308 1.09375 3.82812V8.20312C1.09375 8.34817 1.15137 8.48727 1.25393 8.58982C1.35648 8.69238 1.49558 8.75 1.64062 8.75H2.1875V33.3594C2.1875 33.5044 2.24512 33.6435 2.34768 33.7461C2.45024 33.8486 2.58933 33.9062 2.73438 33.9062H6.5625C6.70754 33.9062 6.84664 33.8486 6.9492 33.7461C7.05176 33.6435 7.10938 33.5044 7.10938 33.3594V8.75H7.65625C7.80129 8.75 7.94039 8.69238 8.04295 8.58982C8.14551 8.48727 8.20312 8.34817 8.20312 8.20312V7.65625H18.6077C19.0054 8.1889 19.5838 8.55815 20.2344 8.69473V13.125H18.5938C18.4487 13.125 18.3096 13.1826 18.2071 13.2852C18.1045 13.3877 18.0469 13.5268 18.0469 13.6719V15.7312C17.4904 15.9039 16.9512 16.1278 16.4362 16.4001L14.9833 14.9427C14.9326 14.8918 14.8723 14.8514 14.806 14.8238C14.7396 14.7962 14.6685 14.782 14.5966 14.7819C14.4516 14.782 14.312 14.8396 14.2094 14.9422L11.114 18.0376C11.0632 18.0884 11.0229 18.1487 10.9954 18.2151C10.9679 18.2815 10.9538 18.3527 10.9538 18.4246C10.9539 18.4965 10.9681 18.5676 10.9957 18.634C11.0233 18.7004 11.0637 18.7607 11.1146 18.8114L12.572 20.2643C12.2997 20.7794 12.0758 21.3186 11.9031 21.875H9.84375C9.69871 21.875 9.55961 21.9326 9.45705 22.0352C9.35449 22.1377 9.29688 22.2768 9.29688 22.4219V24.1633C8.9779 24.2756 8.70153 24.484 8.50569 24.7597C8.30986 25.0354 8.20417 25.3649 8.20312 25.7031V30.0781C8.20417 30.4163 8.30986 30.7459 8.5057 31.0216C8.70153 31.2973 8.97791 31.5056 9.29688 31.6179V33.3594C9.29688 33.5044 9.35449 33.6435 9.45705 33.7461C9.55961 33.8486 9.69871 33.9062 9.84375 33.9062H13.125C13.27 33.9062 13.4091 33.8486 13.5117 33.7461C13.6143 33.6435 13.6719 33.5044 13.6719 33.3594V31.7188H28.4375V33.3594C28.4375 33.5044 28.4951 33.6435 28.5977 33.7461C28.7002 33.8486 28.8393 33.9062 28.9844 33.9062H32.2656C32.4107 33.9062 32.5498 33.8486 32.6523 33.7461C32.7549 33.6435 32.8125 33.5044 32.8125 33.3594V31.618C33.1315 31.5056 33.4078 31.2973 33.6037 31.0216C33.7995 30.7459 33.9052 30.4163 33.9062 30.0781V25.7031C33.9058 25.2682 33.7328 24.8511 33.4252 24.5436C33.1176 24.236 32.7006 24.063 32.2656 24.0625ZM3.82812 2.1875H5.46875V3.28125H3.82812V2.1875ZM6.01562 32.8125H3.28125V30.8766L6.01562 28.5328V32.8125ZM3.28125 29.4359V25.2516L5.72216 27.3438L3.28125 29.4359ZM6.01562 26.1547L3.57471 24.0625L6.01562 21.9703V26.1547ZM3.28125 22.8734V18.6891L5.72216 20.7812L3.28125 22.8734ZM6.01562 19.5922L3.57471 17.5L6.01562 15.4078V19.5922ZM3.28125 16.3109V12.1266L5.72216 14.2188L3.28125 16.3109ZM6.01562 13.0297L3.28125 10.6859V8.75H6.01562V13.0297ZM7.10938 4.92188V7.65625H2.1875V4.375H7.10938V4.92188ZM18.1021 6.5625H8.20312V5.46875H18.1021C18.0285 5.82961 18.0285 6.20164 18.1021 6.5625ZM19.1406 6.01562C19.1406 5.69114 19.2368 5.37394 19.4171 5.10414C19.5974 4.83434 19.8536 4.62406 20.1534 4.49989C20.4532 4.37571 20.7831 4.34322 21.1013 4.40652C21.4196 4.46983 21.7119 4.62608 21.9413 4.85553C22.1708 5.08497 22.327 5.37731 22.3904 5.69556C22.4537 6.0138 22.4212 6.34368 22.297 6.64347C22.1728 6.94325 21.9625 7.19948 21.6927 7.37975C21.4229 7.56003 21.1057 7.65625 20.7812 7.65625C20.3463 7.65578 19.9293 7.48277 19.6217 7.1752C19.3141 6.86762 19.1411 6.4506 19.1406 6.01562ZM10.3906 22.9688H12.3156C12.4367 22.9687 12.5543 22.9286 12.6501 22.8545C12.7458 22.7805 12.8143 22.6768 12.8449 22.5597C13.0389 21.8178 13.3343 21.1063 13.7226 20.4451C13.7839 20.3406 13.8087 20.2188 13.7932 20.0986C13.7777 19.9785 13.7227 19.867 13.6369 19.7815L12.2748 18.4237L14.5955 16.1029L15.9534 17.465C16.0389 17.5507 16.1505 17.6055 16.2705 17.621C16.3906 17.6366 16.5124 17.6118 16.6169 17.5507C17.2781 17.1624 17.9897 16.867 18.7315 16.673C18.8487 16.6424 18.9524 16.5739 19.0264 16.4782C19.1004 16.3824 19.1406 16.2648 19.1406 16.1438V14.2188H22.4219V16.1438C22.4219 16.2648 22.4621 16.3824 22.5361 16.4782C22.6101 16.5739 22.7138 16.6425 22.8309 16.673C23.5728 16.8671 24.2843 17.1624 24.9455 17.5507C25.05 17.612 25.1719 17.6369 25.292 17.6214C25.4121 17.6058 25.5236 17.5508 25.6091 17.465L26.967 16.1029L29.2877 18.4237L27.9256 19.7815C27.8398 19.867 27.7848 19.9785 27.7693 20.0986C27.7538 20.2187 27.7786 20.3406 27.8399 20.4451C28.2282 21.1063 28.5236 21.8178 28.7176 22.5597C28.7482 22.6768 28.8167 22.7805 28.9125 22.8545C29.0082 22.9285 29.1258 22.9687 29.2469 22.9688H31.1719V24.0625H27.316C27.1801 22.4228 26.4328 20.8941 25.2223 19.7798C24.0118 18.6654 22.4266 18.0469 20.7812 18.0469C19.1359 18.0469 17.5507 18.6654 16.3402 19.7798C15.1297 20.8941 14.3824 22.4228 14.2465 24.0625H10.3906V22.9688ZM26.2223 24.0625H15.3402C15.4757 22.7136 16.1074 21.4631 17.1128 20.5537C18.1182 19.6442 19.4256 19.1406 20.7812 19.1406C22.1369 19.1406 23.4443 19.6442 24.4497 20.5537C25.4551 21.4631 26.0868 22.7136 26.2223 24.0625ZM9.52656 30.5114C9.45664 30.4626 9.39934 30.3978 9.3594 30.3225C9.31946 30.2472 9.29803 30.1634 9.29688 30.0781V25.7031C9.29706 25.5581 9.35474 25.4192 9.45726 25.3166C9.55978 25.2141 9.69877 25.1564 9.84375 25.1562H11.7579L9.52656 30.5114ZM12.5781 32.8125H10.3906V31.7188H12.5781V32.8125ZM13.3074 30.625H10.664L12.9426 25.1562H15.586L13.3074 30.625ZM14.4921 30.625L16.7707 25.1562H19.4142L17.1355 30.625H14.4921ZM18.3202 30.625L20.5989 25.1562H23.2423L20.9636 30.625H18.3202ZM22.1483 30.625L24.427 25.1562H27.6173L25.3386 30.625H22.1483ZM28.9844 30.625H26.5233L28.802 25.1562H31.4454L29.1668 30.625H28.9844ZM31.7188 32.8125H29.5312V31.7188H31.7188V32.8125ZM32.8125 30.0781C32.8123 30.2231 32.7546 30.3621 32.6521 30.4646C32.5496 30.5671 32.4106 30.6248 32.2656 30.625H30.3515L32.5828 25.2698C32.6527 25.3186 32.71 25.3834 32.75 25.4587C32.7899 25.5341 32.8113 25.6179 32.8125 25.7031V30.0781Z" fill="white"/>
<path d="M21.3281 5.46875H20.2344V6.5625H21.3281V5.46875Z" fill="white"/>
</svg>
