<svg width="35" height="35" viewBox="0 0 35 35" fill="none" xmlns="http://www.w3.org/2000/svg">
<path d="M33.3594 9.29688H6.5625V6.5625C6.5625 6.41746 6.50488 6.27836 6.40232 6.1758C6.29977 6.07324 6.16067 6.01562 6.01562 6.01562H3.82812C3.10292 6.01563 2.40742 6.30371 1.89463 6.8165C1.38184 7.3293 1.09375 8.0248 1.09375 8.75V29.5312C1.09375 30.2565 1.38184 30.952 1.89463 31.4647C2.40742 31.9775 3.10292 32.2656 3.82812 32.2656H33.3594C33.5044 32.2656 33.6435 32.208 33.7461 32.1054C33.8486 32.0029 33.9062 31.8638 33.9062 31.7188V9.84375C33.9062 9.69871 33.8486 9.55961 33.7461 9.45705C33.6435 9.35449 33.5044 9.29688 33.3594 9.29688ZM2.1875 8.75C2.1888 8.31528 2.36207 7.89873 2.66946 7.59134C2.97686 7.28394 3.3934 7.11067 3.82812 7.10938H5.46875V26.7969H3.82812C3.23639 26.7963 2.66053 26.9882 2.1875 27.3438V8.75ZM30.625 31.1719H27.3438V28.9844H29.5312V27.8906H27.3438V26.7969H28.4375V25.7031H27.3438V24.6094H28.4375V23.5156H27.3438V22.4219H29.5312V21.3281H27.3438V20.2344H28.4375V19.1406H27.3438V18.0469H28.4375V16.9531H27.3438V15.8594H29.5312V14.7656H27.3438V12.5781H30.625V31.1719ZM32.8125 31.1719H31.7188V12.0312C31.7188 11.8862 31.6611 11.7471 31.5586 11.6446C31.456 11.542 31.3169 11.4844 31.1719 11.4844H26.7969C26.6518 11.4844 26.5127 11.542 26.4102 11.6446C26.3076 11.7471 26.25 11.8862 26.25 12.0312V31.1719H3.82812C3.393 31.1719 2.9757 30.999 2.66803 30.6913C2.36035 30.3837 2.1875 29.9664 2.1875 29.5312C2.1875 29.0961 2.36035 28.6788 2.66803 28.3712C2.9757 28.0635 3.393 27.8906 3.82812 27.8906H6.01562C6.16067 27.8906 6.29977 27.833 6.40232 27.7304C6.50488 27.6279 6.5625 27.4888 6.5625 27.3438V10.3906H32.8125V31.1719Z" fill="white"/>
<path d="M10.3906 8.20312H25.1562C25.2327 8.20315 25.3084 8.18712 25.3783 8.15609L30.3002 5.96859C30.3969 5.92566 30.4791 5.85558 30.5368 5.76686C30.5944 5.67813 30.6252 5.57458 30.6252 5.46875C30.6252 5.36292 30.5944 5.25937 30.5368 5.17064C30.4791 5.08192 30.3969 5.01184 30.3002 4.96891L25.3783 2.78141C25.3084 2.75038 25.2327 2.73435 25.1562 2.73438H10.3906C9.66542 2.73438 8.96992 3.02246 8.45713 3.53525C7.94434 4.04805 7.65625 4.74355 7.65625 5.46875C7.65625 6.19395 7.94434 6.88945 8.45713 7.40225C8.96992 7.91504 9.66542 8.20312 10.3906 8.20312ZM13.6719 6.01562H24.6094V7.10938H13.6719V6.01562ZM25.7031 4.12289L26.7969 4.60906V6.32844L25.7031 6.81461V4.12289ZM24.6094 4.92188H13.6719V3.82812H24.6094V4.92188ZM12.5781 7.10938H12.0312V3.82812H12.5781V7.10938ZM27.8906 5.84227V5.09523L28.7317 5.46875L27.8906 5.84227ZM10.3906 3.82812H10.9375V7.10938H10.3906C9.9555 7.10938 9.5382 6.93652 9.23053 6.62885C8.92285 6.32117 8.75 5.90387 8.75 5.46875C8.75 5.03363 8.92285 4.61633 9.23053 4.30865C9.5382 4.00098 9.9555 3.82812 10.3906 3.82812ZM9.21922 22.4164L10.6859 22.6259C10.7851 22.9342 10.9091 23.2339 11.0567 23.5222L10.1686 24.7067C10.0896 24.812 10.0513 24.9423 10.0606 25.0736C10.07 25.2049 10.1264 25.3284 10.2195 25.4215L11.766 26.968C11.8591 27.0611 11.9826 27.1175 12.1139 27.1269C12.2452 27.1362 12.3755 27.0979 12.4808 27.0189L13.6653 26.1308C13.9536 26.2784 14.2533 26.4024 14.5616 26.5016L14.7711 27.9683C14.7898 28.0985 14.8548 28.2177 14.9543 28.3039C15.0537 28.3901 15.1809 28.4375 15.3125 28.4375H17.5C17.6316 28.4375 17.7588 28.3901 17.8582 28.3039C17.9577 28.2177 18.0227 28.0985 18.0414 27.9683L18.2509 26.5016C18.5592 26.4024 18.8589 26.2784 19.1472 26.1308L20.3317 27.0189C20.437 27.0979 20.5673 27.1362 20.6986 27.1269C20.8299 27.1175 20.9534 27.0611 21.0465 26.968L22.593 25.4215C22.6861 25.3284 22.7425 25.2049 22.7519 25.0736C22.7612 24.9423 22.7229 24.812 22.6439 24.7067L21.7558 23.5222C21.9034 23.2339 22.0274 22.9342 22.1266 22.6259L23.5933 22.4164C23.7235 22.3977 23.8427 22.3327 23.9289 22.2332C24.0151 22.1338 24.0625 22.0066 24.0625 21.875V19.6875C24.0625 19.5559 24.0151 19.4287 23.9289 19.3293C23.8427 19.2298 23.7235 19.1648 23.5933 19.1461L22.1266 18.9366C22.0274 18.6283 21.9034 18.3286 21.7558 18.0403L22.6439 16.8558C22.7229 16.7505 22.7612 16.6202 22.7519 16.4889C22.7425 16.3576 22.6861 16.2341 22.593 16.141L21.0465 14.5945C20.9534 14.5014 20.8299 14.445 20.6986 14.4356C20.5673 14.4263 20.437 14.4646 20.3317 14.5436L19.1472 15.4317C18.8589 15.2841 18.5592 15.1601 18.2509 15.0609L18.0414 13.5942C18.0227 13.464 17.9577 13.3448 17.8582 13.2586C17.7588 13.1724 17.6316 13.125 17.5 13.125H15.3125C15.1809 13.125 15.0537 13.1724 14.9543 13.2586C14.8548 13.3448 14.7898 13.464 14.7711 13.5942L14.5616 15.0609C14.2533 15.1601 13.9536 15.2841 13.6653 15.4317L12.4808 14.5436C12.3755 14.4646 12.2452 14.4263 12.1139 14.4356C11.9826 14.445 11.8591 14.5014 11.766 14.5945L10.2195 16.141C10.1264 16.2341 10.07 16.3576 10.0606 16.4889C10.0513 16.6202 10.0896 16.7505 10.1686 16.8558L11.0567 18.0403C10.9091 18.3286 10.7851 18.6283 10.6859 18.9366L9.21922 19.1461C9.08895 19.1648 8.9698 19.2298 8.88361 19.3293C8.79742 19.4287 8.74998 19.5559 8.75 19.6875V21.875C8.74998 22.0066 8.79742 22.1338 8.88361 22.2332C8.9698 22.3327 9.08895 22.3977 9.21922 22.4164ZM9.84375 20.1616L11.1907 19.9691C11.2979 19.9539 11.3982 19.9071 11.4788 19.8348C11.5594 19.7624 11.6168 19.6678 11.6435 19.5628C11.7584 19.1099 11.938 18.676 12.1767 18.2744C12.232 18.1812 12.2585 18.0738 12.2526 17.9656C12.2468 17.8574 12.2089 17.7534 12.1439 17.6668L11.328 16.5785L12.203 15.7035L13.2912 16.5195C13.3779 16.5845 13.4819 16.6223 13.5901 16.6282C13.6982 16.634 13.8057 16.6076 13.8988 16.5523C14.3005 16.3136 14.7344 16.134 15.1873 16.0191C15.2922 15.9923 15.3869 15.935 15.4592 15.8544C15.5315 15.7738 15.5783 15.6735 15.5936 15.5663L15.7866 14.2188H17.0259L17.2184 15.5657C17.2336 15.6729 17.2804 15.7732 17.3527 15.8538C17.4251 15.9344 17.5197 15.9918 17.6247 16.0185C18.0776 16.1334 18.5115 16.313 18.9131 16.5517C19.0063 16.607 19.1137 16.6335 19.2219 16.6276C19.3301 16.6218 19.4341 16.5839 19.5207 16.5189L20.609 15.703L21.484 16.578L20.668 17.6663C20.603 17.7529 20.5652 17.8569 20.5593 17.9651C20.5535 18.0732 20.5799 18.1807 20.6352 18.2738C20.8739 18.6755 21.0535 19.1094 21.1684 19.5623C21.1952 19.6672 21.2525 19.7619 21.3331 19.8342C21.4137 19.9065 21.514 19.9533 21.6212 19.9686L22.9687 20.1616V21.4009L21.6218 21.5934C21.5146 21.6086 21.4143 21.6554 21.3337 21.7277C21.2531 21.8001 21.1957 21.8947 21.169 21.9997C21.0541 22.4526 20.8745 22.8865 20.6358 23.2881C20.5805 23.3813 20.554 23.4887 20.5599 23.5969C20.5657 23.7051 20.6036 23.8091 20.6686 23.8957L21.4845 24.984L20.6095 25.859L19.5234 25.0436C19.4368 24.9786 19.3328 24.9407 19.2246 24.9349C19.1165 24.929 19.009 24.9555 18.9159 25.0108C18.5142 25.2495 18.0803 25.4291 17.6274 25.544C17.5225 25.5707 17.4278 25.6281 17.3555 25.7087C17.2831 25.7893 17.2364 25.8896 17.2211 25.9968L17.0259 27.3438H15.7866L15.5941 25.9968C15.5789 25.8896 15.5321 25.7893 15.4598 25.7087C15.3874 25.6281 15.2928 25.5707 15.1878 25.544C14.7349 25.4291 14.301 25.2495 13.8994 25.0108C13.8062 24.9555 13.6988 24.929 13.5906 24.9349C13.4824 24.9407 13.3784 24.9786 13.2918 25.0436L12.2035 25.8595L11.3285 24.9845L12.1445 23.8962C12.2095 23.8096 12.2473 23.7056 12.2532 23.5974C12.259 23.4893 12.2326 23.3818 12.1773 23.2887C11.9386 22.887 11.759 22.4531 11.6441 22.0002C11.6173 21.8953 11.56 21.8006 11.4794 21.7283C11.3988 21.656 11.2985 21.6092 11.1913 21.5939L9.84375 21.4009V20.1616Z" fill="white"/>
<path d="M16.4062 24.0625C17.0552 24.0625 17.6896 23.8701 18.2292 23.5095C18.7688 23.149 19.1894 22.6365 19.4377 22.0369C19.6861 21.4374 19.7511 20.7776 19.6245 20.1411C19.4978 19.5046 19.1853 18.9199 18.7264 18.4611C18.2676 18.0022 17.6829 17.6897 17.0464 17.563C16.4099 17.4364 15.7501 17.5014 15.1506 17.7498C14.551 17.9981 14.0385 18.4187 13.678 18.9583C13.3174 19.4979 13.125 20.1323 13.125 20.7813C13.1259 21.6512 13.4718 22.4853 14.087 23.1005C14.7022 23.7157 15.5363 24.0616 16.4062 24.0625ZM16.4062 18.5938C16.8389 18.5938 17.2618 18.722 17.6216 18.9624C17.9813 19.2028 18.2617 19.5444 18.4272 19.9441C18.5928 20.3438 18.6361 20.7837 18.5517 21.208C18.4673 21.6323 18.259 22.0221 17.953 22.328C17.6471 22.634 17.2573 22.8423 16.833 22.9267C16.4087 23.0111 15.9688 22.9678 15.5691 22.8022C15.1694 22.6367 14.8278 22.3563 14.5874 21.9966C14.347 21.6368 14.2188 21.2139 14.2188 20.7813C14.2188 20.2011 14.4492 19.6447 14.8595 19.2345C15.2697 18.8242 15.8261 18.5938 16.4062 18.5938Z" fill="white"/>
</svg>
