<svg width="31" height="23" viewBox="0 0 31 23" fill="none" xmlns="http://www.w3.org/2000/svg">
<path d="M0.982422 1.84414C0.982422 0.830773 1.80392 0.00927734 2.81728 0.00927734H28.5054C29.5187 0.00927734 30.3402 0.830773 30.3402 1.84414C30.3402 2.85751 29.5187 3.679 28.5054 3.679H2.81728C1.80392 3.679 0.982422 2.85751 0.982422 1.84414ZM0.982422 11.0185C0.982422 10.0051 1.80392 9.18359 2.81728 9.18359H28.5054C29.5187 9.18359 30.3402 10.0051 30.3402 11.0185C30.3402 12.0318 29.5187 12.8533 28.5054 12.8533H2.81728C1.80392 12.8533 0.982422 12.0318 0.982422 11.0185ZM0.982422 20.1928C0.982422 19.1794 1.80392 18.3579 2.81728 18.3579H28.5054C29.5187 18.3579 30.3402 19.1794 30.3402 20.1928C30.3402 21.2061 29.5187 22.0276 28.5054 22.0276H2.81728C1.80392 22.0276 0.982422 21.2061 0.982422 20.1928Z" fill="#3A3A3A"/>
</svg>
