<svg width="36" height="35" viewBox="0 0 36 35" fill="none" xmlns="http://www.w3.org/2000/svg">
<g clip-path="url(#clip0_138_1017)">
<path d="M24.6447 33.6056C24.6447 33.7268 24.6042 33.8502 24.5299 33.9463C24.0098 34.616 23.2242 35 22.375 35H3.78125C2.27361 35 1.04688 33.7733 1.04688 32.2656V6.01562C1.04688 4.76486 1.89069 3.67699 3.09926 3.36937C3.39139 3.293 3.68939 3.47137 3.76416 3.76404C3.83893 4.0567 3.66216 4.35471 3.36949 4.42894C2.64584 4.61319 2.14062 5.26581 2.14062 6.01562V32.2656C2.14062 33.1703 2.87656 33.9062 3.78125 33.9062H22.375C22.877 33.9062 23.3411 33.683 23.6525 33.2926C23.7518 33.1527 23.9142 33.0614 24.0979 33.0614C24.4001 33.0614 24.6447 33.3033 24.6447 33.6056ZM4.32812 28.9844V2.73438C4.32812 1.22673 5.55486 0 7.0625 0H21.2812C21.3543 0 21.4257 0.0148535 21.4917 0.0424242C21.5584 0.070262 21.6184 0.11055 21.6686 0.160918L28.2297 6.72202C28.2801 6.77218 28.3204 6.83223 28.3482 6.89889C28.3758 6.96495 28.3906 7.03628 28.3906 7.10938V17.5C28.3906 17.8023 28.146 18.0469 27.8438 18.0469C27.5415 18.0469 27.2969 17.8023 27.2969 17.5V7.65625H21.2812C20.979 7.65625 20.7344 7.41165 20.7344 7.10938V1.09375H7.0625C6.15781 1.09375 5.42188 1.82968 5.42188 2.73438V28.9844C5.42188 29.8891 6.15781 30.625 7.0625 30.625H20.078C20.3803 30.625 20.6249 30.8696 20.6249 31.1719C20.6249 31.4742 20.3803 31.7188 20.078 31.7188H7.0625C5.55486 31.7188 4.32812 30.492 4.32812 28.9844ZM21.8281 6.5625H26.5236L21.8281 1.86707V6.5625ZM12.9179 7.26959C12.7043 7.05597 12.3582 7.05597 12.1446 7.26959L9.79688 9.61731L8.54291 8.36334C8.32928 8.14972 7.98322 8.14972 7.76959 8.36334C7.55597 8.57697 7.55597 8.92303 7.76959 9.13666L9.41022 10.7773C9.51703 10.8841 9.65695 10.9375 9.79688 10.9375C9.9368 10.9375 10.0767 10.8841 10.1835 10.7773L12.9179 8.04291C13.1315 7.82928 13.1315 7.48322 12.9179 7.26959ZM24.5625 9.29688H14.7188C14.4165 9.29688 14.1719 9.54147 14.1719 9.84375C14.1719 10.146 14.4165 10.3906 14.7188 10.3906H24.5625C24.8648 10.3906 25.1094 10.146 25.1094 9.84375C25.1094 9.54147 24.8648 9.29688 24.5625 9.29688ZM12.9179 12.7383C12.7043 12.5247 12.3582 12.5247 12.1446 12.7383L9.79688 15.0861L8.54291 13.8321C8.32928 13.6185 7.98322 13.6185 7.76959 13.8321C7.55597 14.0457 7.55597 14.3918 7.76959 14.6054L9.41022 16.246C9.51703 16.3528 9.65695 16.4062 9.79688 16.4062C9.9368 16.4062 10.0767 16.3528 10.1835 16.246L12.9179 13.5117C13.1315 13.298 13.1315 12.952 12.9179 12.7383ZM25.1094 15.3125C25.1094 15.0102 24.8648 14.7656 24.5625 14.7656H14.7188C14.4165 14.7656 14.1719 15.0102 14.1719 15.3125C14.1719 15.6148 14.4165 15.8594 14.7188 15.8594H24.5625C24.8648 15.8594 25.1094 15.6148 25.1094 15.3125ZM12.9179 18.2071C12.7043 17.9935 12.3582 17.9935 12.1446 18.2071L9.79688 20.5548L8.54291 19.3008C8.32928 19.0872 7.98322 19.0872 7.76959 19.3008C7.55597 19.5145 7.55597 19.8605 7.76959 20.0742L9.41022 21.7148C9.51703 21.8216 9.65695 21.875 9.79688 21.875C9.9368 21.875 10.0767 21.8216 10.1835 21.7148L12.9179 18.9804C13.1315 18.7668 13.1315 18.4207 12.9179 18.2071ZM19.6406 20.7812C19.6406 20.479 19.396 20.2344 19.0938 20.2344H14.7188C14.4165 20.2344 14.1719 20.479 14.1719 20.7812C14.1719 21.0835 14.4165 21.3281 14.7188 21.3281H19.0938C19.396 21.3281 19.6406 21.0835 19.6406 20.7812ZM12.1446 23.6758L9.79688 26.0236L8.54291 24.7696C8.32928 24.556 7.98322 24.556 7.76959 24.7696C7.55597 24.9832 7.55597 25.3293 7.76959 25.5429L9.41022 27.1835C9.51703 27.2903 9.65695 27.3438 9.79688 27.3438C9.9368 27.3438 10.0767 27.2903 10.1835 27.1835L12.9179 24.4492C13.1315 24.2355 13.1315 23.8895 12.9179 23.6758C12.7043 23.4622 12.3582 23.4622 12.1446 23.6758ZM14.7188 25.7031C14.4165 25.7031 14.1719 25.9477 14.1719 26.25C14.1719 26.5523 14.4165 26.7969 14.7188 26.7969H17.4531C17.7554 26.7969 18 26.5523 18 26.25C18 25.9477 17.7554 25.7031 17.4531 25.7031H14.7188Z" fill="white"/>
<g clip-path="url(#clip1_138_1017)">
<path fill-rule="evenodd" clip-rule="evenodd" d="M27.6864 33.9161C27.7889 33.9486 27.8966 33.9486 27.9992 33.9161C30.0064 33.2732 31.3701 32.257 32.2391 30.9553C33.1056 29.6592 33.4824 28.0708 33.4824 26.25V20.9949C33.4824 20.7267 33.2748 20.504 33.0082 20.4837C29.527 20.2197 28.235 18.7426 28.235 18.7426C28.1376 18.6265 27.994 18.5596 27.8428 18.5596C27.6915 18.5596 27.548 18.6265 27.4506 18.7426C27.4506 18.7426 26.1586 20.2197 22.6774 20.4837C22.4108 20.504 22.2031 20.7267 22.2031 20.9949V26.25C22.2031 28.0708 22.58 29.6592 23.4464 30.9553C24.3155 32.257 25.6792 33.2732 27.6864 33.9161ZM27.8428 32.8879C26.1816 32.328 25.0332 31.4831 24.3 30.3857C23.5387 29.248 23.2285 27.8483 23.2285 26.25V21.4622C25.7894 21.1805 27.2147 20.2868 27.8428 19.7736C28.4708 20.2868 29.8961 21.1805 32.457 21.4622V26.25C32.457 27.8483 32.1469 29.248 31.3855 30.3857C30.6524 31.4831 29.5039 32.3283 27.8428 32.8879ZM25.4306 26.6125L26.9687 28.1506C27.1686 28.3508 27.4916 28.3508 27.6915 28.1506L30.7677 25.0744C30.9702 24.8744 30.9702 24.5494 30.7677 24.3494C30.5677 24.1492 30.2448 24.1492 30.0448 24.3494L27.3301 27.0631L26.1534 25.8875C25.9535 25.6873 25.6305 25.6873 25.4306 25.8875C25.228 26.0875 25.228 26.4125 25.4306 26.6125Z" fill="white"/>
</g>
</g>
<defs>
<clipPath id="clip0_138_1017">
<rect width="35" height="35" fill="white" transform="translate(0.5)"/>
</clipPath>
<clipPath id="clip1_138_1017">
<rect width="16.4062" height="16.4062" fill="white" transform="translate(19.6406 18.0469)"/>
</clipPath>
</defs>
</svg>
