<svg width="35" height="35" viewBox="0 0 35 35" fill="none" xmlns="http://www.w3.org/2000/svg">
<path fill-rule="evenodd" clip-rule="evenodd" d="M17.6882 2.82796C16.9607 2.82796 16.371 3.40084 16.371 4.10753C16.371 4.81421 16.9607 5.3871 17.6882 5.3871C18.4156 5.3871 19.0054 4.81421 19.0054 4.10753C19.0054 3.40084 18.4156 2.82796 17.6882 2.82796ZM18.629 7.07847C19.9366 6.68816 20.8871 5.50569 20.8871 4.10753C20.8871 2.39129 19.4549 1 17.6882 1C15.9215 1 14.4892 2.39129 14.4892 4.10753C14.4892 5.50569 15.4398 6.68816 16.7473 7.07847V9.04301C16.7473 9.10308 16.7533 9.16183 16.7647 9.21868L12.484 10.1344C12.1532 10.2052 11.8438 10.3242 11.5631 10.483L10.5688 9.51715C11.1704 8.35277 10.971 6.89765 9.97075 5.92598C8.72151 4.7124 6.69606 4.7124 5.44679 5.92598C4.19755 7.13952 4.19755 9.1071 5.44679 10.3207C6.48181 11.3261 8.04962 11.4985 9.26736 10.838L10.2862 11.8278C10.0847 12.2364 9.97312 12.6923 9.97312 13.1691C9.97312 14.4957 10.1201 15.8082 10.4057 17.086H6.30881C5.97032 15.7226 4.70637 14.7097 3.19892 14.7097C1.43221 14.7097 0 16.101 0 17.8172C0 19.5334 1.43221 20.9247 3.19892 20.9247C4.56822 20.9247 5.73654 20.089 6.19289 18.914H10.914H10.9166C11.2514 19.9071 11.6725 20.8714 12.1757 21.7963C12.1474 21.8181 12.12 21.8417 12.0939 21.8672L9.14366 24.7331C7.94504 24.1487 6.44711 24.3424 5.44683 25.3141C4.19755 26.5276 4.19755 28.4952 5.44683 29.7088C6.69606 30.9223 8.72151 30.9223 9.97078 29.7088C11.0058 28.7033 11.1833 27.1804 10.5033 25.9974L13.1657 23.4111C13.7321 24.2364 14.3695 25.0207 15.074 25.7552L16.0137 26.7349C16.2283 26.9586 16.4785 27.1292 16.7473 27.2468V28.9215C15.4398 29.3118 14.4892 30.4943 14.4892 31.8925C14.4892 33.6087 15.9215 35 17.6882 35C19.4549 35 20.8871 33.6087 20.8871 31.8925C20.8871 30.4943 19.9366 29.3118 18.629 28.9215V27.2468C18.8979 27.1292 19.148 26.9586 19.3626 26.7349L20.3023 25.7552C21.0069 25.0207 21.6442 24.2364 22.2107 23.4111L24.8729 25.9973C24.1931 27.1802 24.3706 28.7031 25.4055 29.7084C26.6548 30.922 28.6802 30.922 29.9295 29.7084C31.1788 28.4949 31.1788 26.5273 29.9295 25.3137C28.9292 24.342 27.4311 24.1484 26.2325 24.7329L23.2037 21.7906C23.7055 20.8675 24.1256 19.9051 24.4597 18.914H28.8071C29.2635 20.089 30.4318 20.9247 31.8011 20.9247C33.5678 20.9247 35 19.5334 35 17.8172C35 16.101 33.5678 14.7097 31.8011 14.7097C30.2936 14.7097 29.0297 15.7226 28.6912 17.086H24.9706C25.2562 15.8082 25.4032 14.4957 25.4032 13.1691C25.4032 12.6923 25.2916 12.2364 25.0901 11.8278L26.1092 10.8377C27.3269 11.4981 28.8946 11.3257 29.9295 10.3203C31.1788 9.10673 31.1788 7.13916 29.9295 5.92558C28.6803 4.71203 26.6548 4.71203 25.4056 5.92558C24.4052 6.89735 24.2059 8.35259 24.8076 9.51704L23.8133 10.483C23.5325 10.3242 23.2232 10.2052 22.8923 10.1344L18.6117 9.21868C18.623 9.16183 18.629 9.10308 18.629 9.04301V7.07847ZM1.88172 17.8172C1.88172 18.5239 2.47145 19.0968 3.19892 19.0968C3.9264 19.0968 4.51613 18.5239 4.51613 17.8172C4.51613 17.1105 3.9264 16.5376 3.19892 16.5376C2.47145 16.5376 1.88172 17.1105 1.88172 17.8172ZM26.7361 7.21816C27.2505 6.71843 28.0845 6.71843 28.599 7.21816C29.1133 7.71785 29.1133 8.52804 28.599 9.02773C28.0845 9.52742 27.2505 9.52742 26.7361 9.02773C26.2217 8.52804 26.2217 7.71785 26.7361 7.21816ZM6.77739 7.21853C6.26297 7.71822 6.26297 8.5284 6.77739 9.02809C7.29178 9.52782 8.1258 9.52782 8.64018 9.02809C9.15457 8.5284 9.15457 7.71822 8.64018 7.21853C8.1258 6.71884 7.29178 6.71884 6.77739 7.21853ZM16.371 31.8925C16.371 31.1858 16.9607 30.6129 17.6882 30.6129C18.4156 30.6129 19.0054 31.1858 19.0054 31.8925C19.0054 32.5992 18.4156 33.172 17.6882 33.172C16.9607 33.172 16.371 32.5992 16.371 31.8925ZM30.4839 17.8172C30.4839 18.5239 31.0736 19.0968 31.8011 19.0968C32.5285 19.0968 33.1183 18.5239 33.1183 17.8172C33.1183 17.1105 32.5285 16.5376 31.8011 16.5376C31.0736 16.5376 30.4839 17.1105 30.4839 17.8172ZM6.77739 26.6066C7.29182 26.1069 8.1258 26.1069 8.64022 26.6066C9.15461 27.1063 9.15461 27.9165 8.64022 28.4162C8.1258 28.9159 7.29182 28.9159 6.77739 28.4162C6.26301 27.9165 6.26301 27.1063 6.77739 26.6066ZM26.7361 26.6063C26.2217 27.106 26.2217 27.9162 26.7361 28.4159C27.2505 28.9156 28.0845 28.9156 28.5989 28.4159C29.1133 27.9162 29.1133 27.106 28.5989 26.6063C28.0845 26.1066 27.2505 26.1066 26.7361 26.6063ZM12.8887 11.9196L17.6882 10.8929L22.4876 11.9196C23.0915 12.0488 23.5215 12.5685 23.5215 13.1691C23.5215 17.3778 21.8793 21.43 18.9257 24.509L17.9859 25.4887C17.825 25.6565 17.5514 25.6565 17.3904 25.4887L16.4507 24.509C13.4971 21.43 11.8548 17.3778 11.8548 13.1691C11.8548 12.5685 12.2849 12.0488 12.8887 11.9196Z" fill="white"/>
</svg>
